# xmcd
#
# Track frame offsets:
#	150
#	14622
#	34735
#	60338
#	79333
#	99555
#	117662
#	149050
#	163861
#
# Disc length: 2272 seconds
#
# Revision: 0
# Processed by: cddbd v1.5.1PL2 Copyright (c) Steve Scherf et al.
# Submitted via: dBpowerAMP V4.0
#
DISCID=7f08de09
DTITLE=Crisis Blues Band - The Longest Day
DYEAR=1900
DGENRE=Blues
TTITLE0=Take Me To The River
TTITLE1=One Day
TTITLE2=No Win Game
TTITLE3=Hey Buddy
TTITLE4=Junkyards In Your Eyes
TTITLE5=No Room No Fools
TTITLE6=Stormy Monday Blues
TTITLE7=Sweeter Than Wine
TTITLE8=Sunset
EXTD=
EXTT0=
EXTT1=
EXTT2=
EXTT3=
EXTT4=
EXTT5=
EXTT6=
EXTT7=
EXTT8=
PLAYORDER=
